<?xml version="1.0" standalone="no"?>
<!DOCTYPE svg PUBLIC "-//W3C//DTD SVG 20010904//EN"
 "http://www.w3.org/TR/2001/REC-SVG-20010904/DTD/svg10.dtd">
<svg version="1.0" xmlns="http://www.w3.org/2000/svg"
 width="501.000000pt" height="501.000000pt" viewBox="0 0 501.000000 501.000000"
 preserveAspectRatio="xMidYMid meet">
<metadata>
Created by potrace 1.14, written by Peter Selinger 2001-2017
</metadata>
<g transform="translate(0.000000,501.000000) scale(0.100000,-0.100000)"
fill="#000000" stroke="none">
<path d="M3531 4958 c-22 -29 -107 -138 -189 -243 -81 -104 -192 -248 -247
-320 -55 -71 -105 -137 -112 -145 -7 -8 -54 -69 -105 -135 -51 -66 -113 -145
-136 -175 -88 -112 -97 -124 -107 -137 -7 -10 -22 -12 -50 -8 -22 4 -137 8
-255 10 -239 4 -355 -7 -546 -50 -52 -12 -160 -48 -168 -56 -6 -5 -16 -9 -24
-9 -28 0 -180 -82 -267 -145 -228 -165 -400 -420 -516 -766 -22 -66 -42 -128
-45 -137 -2 -9 -17 -71 -34 -137 -17 -66 -33 -136 -36 -155 -3 -19 -7 -43 -10
-52 -3 -10 -7 -30 -10 -45 -3 -16 -11 -64 -19 -108 -8 -44 -17 -98 -21 -120
-8 -61 -14 -95 -24 -155 -5 -30 -12 -73 -15 -95 -4 -22 -8 -47 -10 -55 -2 -8
-7 -40 -10 -70 -4 -30 -8 -57 -10 -60 -2 -3 -6 -26 -10 -50 -12 -85 -16 -105
-50 -259 -19 -85 -52 -206 -74 -268 l-38 -113 23 -14 c20 -14 23 -13 37 8 9
13 22 29 29 37 8 8 63 73 122 144 143 171 137 165 133 140 -2 -11 -20 -72 -39
-135 -20 -63 -89 -284 -154 -490 -64 -206 -131 -420 -149 -475 -18 -55 -31
-101 -30 -103 5 -6 78 41 324 208 146 99 266 178 268 177 1 -2 6 -70 9 -153 7
-149 10 -203 13 -216 0 -4 20 3 44 16 195 109 388 215 418 228 31 15 94 18
500 23 611 7 1322 16 1534 19 l170 2 48 -28 c26 -15 49 -28 51 -28 2 0 75 -41
162 -91 88 -50 163 -91 168 -92 8 -2 30 58 80 226 15 48 29 87 32 87 3 0 107
-52 230 -115 124 -63 226 -115 228 -115 2 0 -14 62 -36 137 -21 76 -48 172
-59 213 -11 41 -38 138 -61 215 -22 77 -42 147 -44 155 -5 22 -41 150 -53 190
-24 77 -25 78 143 -183 37 -59 71 -107 75 -107 4 0 15 6 24 12 16 12 16 17 -3
78 -32 104 -126 530 -155 700 -3 19 -33 170 -66 334 -121 609 -214 924 -356
1211 -192 387 -459 615 -798 684 -55 11 -116 21 -135 23 -19 2 -34 8 -32 13 3
10 667 880 689 903 14 15 17 38 6 44 -6 2 -170 181 -204 221 -3 5 -25 -15 -48
-45z"/>
</g>
</svg>
